<svg width="117" height="122" fill="none" xmlns="http://www.w3.org/2000/svg"><g filter="url(#a)"><path d="M74.8994 33.6667C81.6742 24.7761 82.8659 0 82.8659 0s.0929 24.7295 6.581 33.6667C95.3956 41.8607 113 43.3333 113 43.3333s-17.6329 4.5711-23.5531 13C82.7487 65.87 82.8659 89 82.8659 89s-.9792-23.1812-7.9665-32.6667c-6.2567-8.4937-23.8994-13-23.8994-13s17.6086-1.411 23.8994-9.6666Z" fill="#EA8996"/></g><g filter="url(#b)"><path d="M17.8771 82.2921C21.8108 77.1975 22.5028 63 22.5028 63s.0539 14.1708 3.8212 19.2921C29.7781 86.9876 40 87.8315 40 87.8315s-10.2385 2.6193-13.676 7.4494C22.4347 100.746 22.5028 114 22.5028 114s-.5686-13.284-4.6257-18.7191C14.2441 90.4137 4 87.8315 4 87.8315s10.2243-.8086 13.8771-5.5394Z" fill="#EA8996"/></g><defs><filter id="a" x="47" y="0" width="70" height="97" filterUnits="userSpaceOnUse" color-interpolation-filters="sRGB"><feFlood flood-opacity="0" result="BackgroundImageFix"/><feColorMatrix in="SourceAlpha" values="0 0 0 0 0 0 0 0 0 0 0 0 0 0 0 0 0 0 127 0" result="hardAlpha"/><feOffset dy="4"/><feGaussianBlur stdDeviation="2"/><feComposite in2="hardAlpha" operator="out"/><feColorMatrix values="0 0 0 0 0 0 0 0 0 0 0 0 0 0 0 0 0 0 0.25 0"/><feBlend in2="BackgroundImageFix" result="effect1_dropShadow_0_1"/><feBlend in="SourceGraphic" in2="effect1_dropShadow_0_1" result="shape"/></filter><filter id="b" x="0" y="63" width="44" height="59" filterUnits="userSpaceOnUse" color-interpolation-filters="sRGB"><feFlood flood-opacity="0" result="BackgroundImageFix"/><feColorMatrix in="SourceAlpha" values="0 0 0 0 0 0 0 0 0 0 0 0 0 0 0 0 0 0 127 0" result="hardAlpha"/><feOffset dy="4"/><feGaussianBlur stdDeviation="2"/><feComposite in2="hardAlpha" operator="out"/><feColorMatrix values="0 0 0 0 0 0 0 0 0 0 0 0 0 0 0 0 0 0 0.25 0"/><feBlend in2="BackgroundImageFix" result="effect1_dropShadow_0_1"/><feBlend in="SourceGraphic" in2="effect1_dropShadow_0_1" result="shape"/></filter></defs></svg>