<svg width="49" height="66" fill="none" xmlns="http://www.w3.org/2000/svg"><g filter="url(#a)"><path d="M25.95 17.023C29.337 12.527 29.933 0 29.933 0s.046 12.504 3.29 17.023C36.199 21.166 45 21.91 45 21.91s-8.816 2.311-11.776 6.573C29.873 33.305 29.933 45 29.933 45s-.49-11.72-3.983-16.517C22.82 24.19 14 21.91 14 21.91s8.804-.713 11.95-4.887Z" fill="#944029"/></g><g filter="url(#b)"><path d="M11.324 41.214C13.4 38.516 13.765 31 13.765 31s.029 7.502 2.017 10.214C17.605 43.699 23 44.146 23 44.146s-5.404 1.387-7.218 3.944C13.73 50.983 13.765 58 13.765 58s-.3-7.032-2.441-9.91C9.407 45.513 4 44.146 4 44.146s5.396-.428 7.324-2.932Z" fill="#944029"/></g><defs><filter id="a" x="10" y="0" width="39" height="53" filterUnits="userSpaceOnUse" color-interpolation-filters="sRGB"><feFlood flood-opacity="0" result="BackgroundImageFix"/><feColorMatrix in="SourceAlpha" values="0 0 0 0 0 0 0 0 0 0 0 0 0 0 0 0 0 0 127 0" result="hardAlpha"/><feOffset dy="4"/><feGaussianBlur stdDeviation="2"/><feComposite in2="hardAlpha" operator="out"/><feColorMatrix values="0 0 0 0 0 0 0 0 0 0 0 0 0 0 0 0 0 0 0.25 0"/><feBlend in2="BackgroundImageFix" result="effect1_dropShadow_502_339"/><feBlend in="SourceGraphic" in2="effect1_dropShadow_502_339" result="shape"/></filter><filter id="b" x="0" y="31" width="27" height="35" filterUnits="userSpaceOnUse" color-interpolation-filters="sRGB"><feFlood flood-opacity="0" result="BackgroundImageFix"/><feColorMatrix in="SourceAlpha" values="0 0 0 0 0 0 0 0 0 0 0 0 0 0 0 0 0 0 127 0" result="hardAlpha"/><feOffset dy="4"/><feGaussianBlur stdDeviation="2"/><feComposite in2="hardAlpha" operator="out"/><feColorMatrix values="0 0 0 0 0 0 0 0 0 0 0 0 0 0 0 0 0 0 0.25 0"/><feBlend in2="BackgroundImageFix" result="effect1_dropShadow_502_339"/><feBlend in="SourceGraphic" in2="effect1_dropShadow_502_339" result="shape"/></filter></defs></svg>